<svg width="49" height="18" viewBox="0 0 49 18" fill="none" xmlns="http://www.w3.org/2000/svg">
<path d="M0 17V1C0 0.447715 0.447716 0 1 0H42.4648C42.7992 0 43.1114 0.167102 43.2969 0.4453L48.6302 8.4453C48.8541 8.7812 48.8541 9.2188 48.6302 9.5547L43.2969 17.5547C43.1114 17.8329 42.7992 18 42.4648 18H1C0.447715 18 0 17.5523 0 17Z" fill="#009949"/>
<path d="M11.5078 11.0312H8.32031L7.71094 13H6.23438L9.15234 4.51562H10.6875L13.6055 13H12.1172L11.5078 11.0312ZM11.1211 9.80078L9.90234 5.89844L8.69531 9.80078H11.1211Z" fill="white"/>
</svg>
