<svg width="49" height="18" viewBox="0 0 49 18" fill="none" xmlns="http://www.w3.org/2000/svg">
<path d="M0 17V1C0 0.447715 0.447716 0 1 0H42.4648C42.7992 0 43.1114 0.167102 43.2969 0.4453L48.6302 8.4453C48.8541 8.7812 48.8541 9.2188 48.6302 9.5547L43.2969 17.5547C43.1114 17.8329 42.7992 18 42.4648 18H1C0.447715 18 0 17.5523 0 17Z" fill="#009949"/>
<path d="M11.5078 8.52344C12.5547 8.82812 13.0781 9.48438 13.0781 10.4922C13.0781 11.2891 12.8398 11.9062 12.3633 12.3438C11.8867 12.7812 11.2188 13 10.3594 13H6.98438V4.51562H9.96094C10.7969 4.51562 11.4453 4.72656 11.9062 5.14844C12.3672 5.5625 12.5977 6.14844 12.5977 6.90625C12.5977 7.71094 12.2344 8.25 11.5078 8.52344ZM8.37891 5.76953V8.05469H9.96094C10.7656 8.05469 11.168 7.67969 11.168 6.92969C11.168 6.15625 10.7422 5.76953 9.89062 5.76953H8.37891ZM10.4297 11.7461C11.2344 11.7461 11.6367 11.3359 11.6367 10.5156C11.6367 9.67969 11.2109 9.26172 10.3594 9.26172H8.37891V11.7461H10.4297Z" fill="white"/>
</svg>
