<svg width="49" height="18" viewBox="0 0 49 18" fill="none" xmlns="http://www.w3.org/2000/svg">
<path d="M0 17V1C0 0.447715 0.447716 0 1 0H42.4648C42.7992 0 43.1114 0.167102 43.2969 0.4453L48.6302 8.4453C48.8541 8.7812 48.8541 9.2188 48.6302 9.5547L43.2969 17.5547C43.1114 17.8329 42.7992 18 42.4648 18H1C0.447715 18 0 17.5523 0 17Z" fill="#009949"/>
<path d="M10.3711 13.1406C9.14453 13.1406 8.19141 12.7734 7.51172 12.0391C6.83984 11.3047 6.50391 10.2695 6.50391 8.93359C6.50391 8.00391 6.65625 7.19531 6.96094 6.50781C7.27344 5.82031 7.71484 5.29297 8.28516 4.92578C8.86328 4.55078 9.53906 4.36328 10.3125 4.36328C10.7344 4.36328 11.1445 4.42188 11.543 4.53906C11.9492 4.64844 12.3086 4.80469 12.6211 5.00781L12.1406 6.09766C11.5234 5.79297 10.9062 5.64062 10.2891 5.64062C9.54688 5.64062 8.97266 5.91797 8.56641 6.47266C8.16016 7.02734 7.95703 7.8125 7.95703 8.82812C7.95703 9.82812 8.16406 10.582 8.57812 11.0898C9 11.5977 9.62109 11.8516 10.4414 11.8516C11.1445 11.8516 11.7344 11.7148 12.2109 11.4414L12.6914 12.5078C12.4414 12.7031 12.1094 12.8594 11.6953 12.9766C11.2891 13.0859 10.8477 13.1406 10.3711 13.1406Z" fill="white"/>
</svg>
