<svg width="49" height="18" viewBox="0 0 49 18" fill="none" xmlns="http://www.w3.org/2000/svg">
<path d="M0 17V1C0 0.447715 0.447716 0 1 0H42.4648C42.7992 0 43.1114 0.167102 43.2969 0.4453L48.6302 8.4453C48.8541 8.7812 48.8541 9.2188 48.6302 9.5547L43.2969 17.5547C43.1114 17.8329 42.7992 18 42.4648 18H1C0.447715 18 0 17.5523 0 17Z" fill="#009949"/>
<path d="M9.63281 4.51562C10.8906 4.51562 11.8477 4.87109 12.5039 5.58203C13.1602 6.29297 13.4883 7.34766 13.4883 8.74609C13.4883 10.1523 13.1562 11.2148 12.4922 11.9336C11.8359 12.6445 10.8789 13 9.62109 13H6.98438V4.51562H9.63281ZM9.60938 11.7461C10.4141 11.7461 11.0195 11.4961 11.4258 10.9961C11.832 10.4883 12.0352 9.73828 12.0352 8.74609C12.0352 6.76172 11.2227 5.76953 9.59766 5.76953H8.39062V11.7461H9.60938Z" fill="white"/>
</svg>
